Coordinates
version=1
nRows=19
nColumns=24
inDegrees=yes

Units are S.I. units (second, meters, Newtons, ...)
Angles are in degrees.

endheader
time	pelvis_tilt	pelvis_list	pelvis_rotation	pelvis_tx	pelvis_ty	pelvis_tz	hip_flexion_r	hip_adduction_r	hip_rotation_r	knee_angle_r	ankle_angle_r	subtalar_angle_r	mtp_angle_r	hip_flexion_l	hip_adduction_l	hip_rotation_l	knee_angle_l	ankle_angle_l	subtalar_angle_l	mtp_angle_l	lumbar_extension	lumbar_bending	lumbar_rotation
      5.64500000	     12.62461687	     -4.30676859	     -3.87072944	      1.61970913	      0.72805289	     -0.20147530	    -29.05217208	      4.15720686	     -3.62111063	    -17.22534970	     33.12832997	     26.17288909	      0.00000000	     17.57836061	     -0.28849796	     -4.26982984	    -13.77214748	     21.86978473	      6.47297797	      0.00000000	    -32.03266944	      3.81257417	     17.20323328
      5.65000000	     12.61863040	     -3.90134851	     -4.01950835	      1.62819895	      0.72809438	     -0.20143614	    -29.07119288	      3.53473431	     -3.77248194	    -18.42731264	     32.28590139	     26.40285762	      0.00000000	     17.44442306	      0.21584113	     -4.34362288	    -14.47125590	     21.22780581	      5.52156205	      0.00000000	    -31.80872653	      3.35506470	     17.04408370
      5.65500000	     12.61941092	     -3.47631926	     -4.10415714	      1.63669653	      0.72822478	     -0.20149260	    -29.03115067	      2.91414566	     -3.99123274	    -19.72886318	     31.26293964	     26.63815149	      0.00000000	     17.30520545	      0.76879348	     -4.23138475	    -15.22444744	     20.51311177	      4.49083124	      0.00000000	    -31.59203002	      2.91740733	     16.80704263
      5.66000000	     12.62736740	     -3.03513126	     -4.12957777	      1.64518839	      0.72845059	     -0.20162169	    -28.93170901	      2.30229718	     -4.25714162	    -21.12398720	     30.04552036	     26.82717278	      0.00000000	     17.16512286	      1.35676065	     -4.00499887	    -16.03376502	     19.75265751	      3.48088216	      0.00000000	    -31.38415449	      2.49250193	     16.52387019
      5.66500000	     12.64385277	     -2.58375673	     -4.11301088	      1.65365752	      0.72877032	     -0.20182053	    -28.76769029	      1.69297085	     -4.56307994	    -22.62112159	     28.63808226	     26.96506471	      0.00000000	     17.01683850	      1.97028842	     -3.68782528	    -16.87958866	     18.97176086	      2.50742950	      0.00000000	    -31.19336489	      2.08348127	     16.20285278
      5.67000000	     12.66369974	     -2.11597361	     -4.06304414	      1.66209909	      0.72918276	     -0.20206127	    -28.53041416	      1.08283205	     -4.87813816	    -24.22149749	     27.03595971	     26.99966716	      0.00000000	     16.85997130	      2.60590058	     -3.34040649	    -17.74112843	     18.18757510	      1.63035133	      0.00000000	    -31.01325811	      1.67410782	     15.84955495
      5.67500000	     12.69018429	     -1.64599345	     -3.98170081	      1.67050663	      0.72968972	     -0.20237366	    -28.22641593	      0.47427672	     -5.23416037	    -25.90730659	     25.22694717	     26.97043791	      0.00000000	     16.68460951	      3.25645738	     -2.93259930	    -18.60624088	     17.43191135	      0.82021625	      0.00000000	    -30.85191299	      1.28649778	     15.48109917
      5.68000000	     12.72115442	     -1.17150214	     -3.88288337	      1.67886353	      0.73028621	     -0.20272083	    -27.84631373	     -0.13828102	     -5.60272883	    -27.68631676	     23.21261902	     26.81730182	      0.00000000	     16.48693628	      3.91143613	     -2.52703117	    -19.45144716	     16.72189545	      0.13096201	      0.00000000	    -30.70691767	      0.90780023	     15.09180854
      5.68500000	     12.75507580	     -0.70241329	     -3.77227031	      1.68717672	      0.73096424	     -0.20311192	    -27.39321987	     -0.75085479	     -5.97434021	    -29.53973479	     20.98862334	     26.56599659	      0.00000000	     16.25834531	      4.56346828	     -2.11799188	    -20.25884246	     16.10620336	     -0.46192889	      0.00000000	    -30.57660602	      0.54917470	     14.69879627
      5.69000000	     12.78932004	     -0.23370302	     -3.64924578	      1.69540751	      0.73171761	     -0.20351757	    -26.86028974	     -1.36106775	     -6.34551086	    -31.46438803	     18.61655607	     26.11288038	      0.00000000	     16.00675118	      5.20456843	     -1.76625545	    -21.02611771	     15.53933930	     -0.87635319	      0.00000000	    -30.46519639	      0.19898377	     14.29840939
      5.69500000	     12.81744339	      0.22090609	     -3.52736784	      1.70357955	      0.73252949	     -0.20394601	    -26.24829539	     -1.96810954	     -6.70582620	    -33.43476890	     16.09626160	     25.52844670	      0.00000000	     15.72447079	      5.82938116	     -1.42724771	    -21.73337338	     15.09823243	     -1.21833516	      0.00000000	    -30.35935168	     -0.12883761	     13.91024681
      5.70000000	     12.83751815	      0.66601449	     -3.40915889	      1.71167124	      0.73338684	     -0.20438946	    -25.55464820	     -2.57644059	     -7.04752947	    -35.44392247	     13.48600959	     24.76595403	      0.00000000	     15.41405382	      6.43575042	     -1.13596076	    -22.37197655	     14.76543360	     -1.44445837	      0.00000000	    -30.26089118	     -0.44103708	     13.52618974
      5.70500000	     12.84768070	      1.09885162	     -3.29621634	      1.71967276	      0.73428078	     -0.20483113	    -24.78269099	     -3.17999076	     -7.36536014	    -37.47330977	     10.85703813	     23.82354807	      0.00000000	     15.07588421	      7.01871623	     -0.89794881	    -22.93778546	     14.53839460	     -1.56208244	      0.00000000	    -30.16802676	     -0.73911179	     13.15150158
      5.71000000	     12.83168017	      1.50579061	     -3.18920010	      1.72757885	      0.73518448	     -0.20527353	    -23.91880454	     -3.75977781	     -7.63357995	    -39.50777771	      8.26987054	     22.68330998	      0.00000000	     14.72182180	      7.56768681	     -0.68720117	    -23.41955656	     14.44190331	     -1.61555954	      0.00000000	    -30.06342272	     -1.00518799	     12.78181679
      5.71500000	     12.80201116	      1.90292805	     -3.09114119	      1.73538277	      0.73610118	     -0.20569928	    -22.98372048	     -4.33511076	     -7.87116645	    -41.53423585	      5.80690047	     21.37974668	      0.00000000	     14.34760522	      8.09303440	     -0.54060141	    -23.83124562	     14.43787739	     -1.56306350	      0.00000000	    -29.96146877	     -1.26407797	     12.42868679
      5.72000000	     12.74550196	      2.27468529	     -3.00162458	      1.74308230	      0.73701162	     -0.20610272	    -21.96889486	     -4.87800224	     -8.03903505	    -43.53458229	      3.53110741	     19.91856568	      0.00000000	     13.96271816	      8.58159219	     -0.42836096	    -24.16622356	     14.54938978	     -1.43825265	      0.00000000	    -29.84736063	     -1.49897635	     12.08603213
      5.72500000	     12.65749763	      2.61478329	     -2.92055676	      1.75067339	      0.73791577	     -0.20647630	    -20.87316237	     -5.37976984	     -8.13782870	    -45.49879256	      1.49795867	     18.35003598	      0.00000000	     13.57172982	      9.02549089	     -0.35209115	    -24.42147698	     14.75796318	     -1.22994140	      0.00000000	    -29.71687906	     -1.70445540	     11.75991478
      5.73000000	     12.57329499	      2.95980104	     -2.84587980	      1.75816719	      0.73882091	     -0.20683928	    -19.74482436	     -5.89144551	     -8.22395872	    -47.42585473	     -0.19802215	     16.70699975	      0.00000000	     13.13960782	      9.46760017	     -0.32468119	    -24.59612845	     15.03702873	     -0.98632104	      0.00000000	    -29.60647453	     -1.91689564	     11.42509571
      5.73500000	     12.45224518	      3.26095075	     -2.77489394	      1.76555063	      0.73971392	     -0.20716881	    -18.53839760	     -6.33763815	     -8.22682711	    -49.29848413	     -1.58053879	     15.00039205	      0.00000000	     12.71189014	      9.85489371	     -0.30255276	    -24.70231773	     15.38851290	     -0.67703878	      0.00000000	    -29.47374019	     -2.08680600	     11.11383520
